# xmcd
#
# Track frame offsets: 
#        150
#        16941
#        33568
#        48043
#        70596
#        85912
#        108496
#        131009
#        142992
#        161132
#
# Disc length: 2278 seconds
#
# Revision: 0
# Processed by: cddbd v1.5.1PL0 Copyright (c) Steve Scherf et al.
# Submitted via: ExactAudioCopy v0.95a5
#
DISCID=7d08e40a
DTITLE=PeeWee Bluesgang - Red Socks
DYEAR=1982
DGENRE=Blues
TTITLE0=Red Socks and Rock'n'Roll
TTITLE1=Texas
TTITLE2=Waves
TTITLE3=Boogie Child
TTITLE4=If You Really Love Me
TTITLE5=Open Up Your Heart
TTITLE6=Just A Song
TTITLE7=Lost 'n' Found
TTITLE8=I Don't Need No Name
TTITLE9=Subway Blues
EXTD=
EXTT0=
EXTT1=
EXTT2=
EXTT3=
EXTT4=
EXTT5=
EXTT6=
EXTT7=
EXTT8=
EXTT9=
PLAYORDER=
